<svg xmlns="http://www.w3.org/2000/svg" viewBox="0 0 512 640" x="0px" y="0px"><g><path d="M240,282.24H160V273.5a21.642,21.642,0,0,0,16-20.864v-14.9l9.117-2.653a4,4,0,0,0,2.693-5.06l-.739-2.307c17.825-6.422,43.16-17.864,40.22-30.221-2.808-11.787-28.741-11.63-53.06-8.318A30.684,30.684,0,0,0,116,202.7v.543a181.025,181.025,0,0,0-20.742,8.743c-15.116,7.66-21.959,14.992-20.341,21.785,1.884,7.96,14.11,10.314,27.909,10.314,4.327,0,8.808-.232,13.174-.595v2.762a16.09,16.09,0,0,0,12,15.472V282.24H48a28,28,0,0,0-28,28v134a38.053,38.053,0,0,0,24,35.316V496a4,4,0,0,0,4,4H240a4,4,0,0,0,4-4V461.149a44.853,44.853,0,0,0,24-39.679V310.24A28.032,28.032,0,0,0,240,282.24ZM118.9,218.394a4,4,0,0,0-2.9,3.846v13.217c-24.168,2.067-32.886-1.786-33.3-3.534-.207-.868,1.932-5.585,16.173-12.8,12.606-6.388,30.019-12.4,49.033-16.921,18.937-4.51,37.118-6.991,51.222-6.991h.174c15.964.023,20,3.269,20.206,4.136.475,2-7.361,10.777-34.879,20.74l-4.82-15.065a4,4,0,0,0-4.909-2.627ZM132,290.24a4,4,0,0,0,4-4v-28a4,4,0,0,0-3.988-4,8.04,8.04,0,1,1,6.316-13.05,4,4,0,0,0,5.989.289,28.763,28.763,0,0,0,5.487-7.956A25.969,25.969,0,0,0,168,239.4v13.228a13.62,13.62,0,0,1-13.6,13.6,18.419,18.419,0,0,1-5.472-.826,4,4,0,0,0-2.376,7.639A26.327,26.327,0,0,0,152,274.117V286.24a4,4,0,0,0,4,4h6.45l-1.185,3.555a18.2,18.2,0,0,1-34.53,0l-1.185-3.555Zm-14.883,0,2.029,6.085a26.2,26.2,0,0,0,49.709,0l2.028-6.085H187.62l-5.092,56H106a4.067,4.067,0,0,0-.484.043l-5.133-56.043Zm-7.8,64h88.03L185.6,416.167c-.008-.01-.015-.022-.023-.032A15.225,15.225,0,0,0,173.5,410.24H172a4,4,0,0,0-3.88,3.03l-3.243,12.97H95.82ZM28,310.24a20,20,0,0,1,20-20H76.347l7.407,81.475L76,377.918V338.36a4,4,0,0,0-8,0v31.876H28ZM206.505,438.892l-5.341,32a3.985,3.985,0,0,1-3.944,3.344H58a30.034,30.034,0,0,1-30-30v-66H68v52a4,4,0,0,0,4,4h96a4,4,0,0,0,3.88-3.03l3.2-12.8a7.326,7.326,0,0,1,5.517,8.935l-.48,1.93A4,4,0,0,0,184,434.24h18.56a4,4,0,0,1,3.945,4.652ZM260,421.47a36.725,36.725,0,0,1-48.3,34.9l2.7-16.162A12,12,0,0,0,202.56,426.24H191.83l3.007-15.847,19.728,7.581A4,4,0,0,0,220,414.24v-36h40Zm0-51.234H220V330.36a4,4,0,0,0-8,0v48.512l-9.749-7.549,3.859-20.337c.024-.128.018-.257.03-.386l.024,0,5.489-60.363H240a20.023,20.023,0,0,1,20,20Z"/><path d="M408,332a84,84,0,1,0,84,84A84.095,84.095,0,0,0,408,332Zm0,160a76,76,0,1,1,76-76A76.085,76.085,0,0,1,408,492Z"/><path d="M324,232a84,84,0,1,0,84-84A84.095,84.095,0,0,0,324,232Zm84-76a76,76,0,1,1-76,76A76.085,76.085,0,0,1,408,156Z"/><path d="M280,180a84,84,0,1,0-84-84A84.095,84.095,0,0,0,280,180Zm0-160a76,76,0,1,1-76,76A76.085,76.085,0,0,1,280,20Z"/><path d="M96,180A84,84,0,1,0,12,96,84.095,84.095,0,0,0,96,180ZM96,20A76,76,0,1,1,20,96,76.085,76.085,0,0,1,96,20Z"/><path d="M48,140h96a4,4,0,0,0,4-4V56a4,4,0,0,0-2.211-3.578l-48-24a4,4,0,0,0-3.578,0l-48,24A4,4,0,0,0,44,56v80A4,4,0,0,0,48,140Zm40-8H72V120.123l3.134-.784A25.68,25.68,0,0,0,88,111.613Zm24,0H96V120.123l3.134-.784A25.68,25.68,0,0,0,112,111.613Zm28,0H120V120.123l3.134-.784A25.677,25.677,0,0,0,140,105.674ZM52,58.472l44-22,44,22V90.63a3.962,3.962,0,0,0-1.373-.257A25.68,25.68,0,0,0,120,98.356V88.3l1.167-4.416a17.789,17.789,0,0,0-1.687-13.637,19.512,19.512,0,0,0-12.222-8.776,4,4,0,0,0-4.488,1.918,19.513,19.513,0,0,0-2.107,14.9,17.79,17.79,0,0,0,8.688,10.644L112,90.392v.128a25.666,25.666,0,0,0-16,7.836V88.3l1.167-4.416A17.789,17.789,0,0,0,95.48,70.242a19.512,19.512,0,0,0-12.222-8.776,4,4,0,0,0-4.488,1.918,19.513,19.513,0,0,0-2.107,14.9,17.79,17.79,0,0,0,8.688,10.644L88,90.392v.128a25.666,25.666,0,0,0-16,7.836V88.3l1.167-4.416A17.789,17.789,0,0,0,71.48,70.242a19.512,19.512,0,0,0-12.222-8.776,4,4,0,0,0-4.488,1.918,19.513,19.513,0,0,0-2.107,14.9,17.79,17.79,0,0,0,8.688,10.644L64,90.392V132H52Z"/><path d="M280,156a44.049,44.049,0,0,0,44-44c0-23.229-39.209-72.419-40.879-74.5a4,4,0,0,0-6.242,0C275.209,39.581,236,88.771,236,112A44.049,44.049,0,0,0,280,156Zm7-78.754a4,4,0,0,1,5.558,1.056c9.485,13.934,14.294,24.695,14.294,31.984a32.362,32.362,0,0,1-1.967,11.188,4,4,0,1,1-7.51-2.757,24.384,24.384,0,0,0,1.477-8.431c0-5.494-4.584-15.255-12.907-27.482A4,4,0,0,1,287.005,77.246ZM280,132a16.574,16.574,0,0,0,6.805-1.46,4,4,0,1,1,3.264,7.3A24.521,24.521,0,0,1,280,140a4,4,0,0,1,0-8Z"/><path d="M420,430.7V360a12,12,0,0,0-24,0v70.7a27.827,27.827,0,0,0-15.965,26.719,28.281,28.281,0,0,0,26.183,26.529c.606.038,1.207.057,1.807.057a27.74,27.74,0,0,0,19.147-7.594A28,28,0,0,0,420,430.7Zm1.693,39.877a19.852,19.852,0,0,1-14.979,5.382,20.189,20.189,0,0,1-18.689-18.94,19.9,19.9,0,0,1,13.308-19.877A4,4,0,0,0,404,433.371V380h8v53.371a4,4,0,0,0,2.667,3.771A20.035,20.035,0,0,1,428,456,19.817,19.817,0,0,1,421.693,470.578Z"/><circle cx="408" cy="456" r="12"/><path d="M441.789,392.422l-8-4a4,4,0,1,0-3.578,7.156l8,4a4,4,0,0,0,3.578-7.156Z"/><path d="M432,364a3.986,3.986,0,0,0,1.786-.423l8-4a4,4,0,0,0-3.578-7.156l-8,4A4,4,0,0,0,432,364Z"/><path d="M444,372H432a4,4,0,0,0,0,8h12a4,4,0,0,0,0-8Z"/><path d="M352,268h88a4,4,0,0,0,4-4,37.267,37.267,0,0,0-4.084-16.987A27.985,27.985,0,0,0,424,196a27.872,27.872,0,0,0-25.355,16.16A23.879,23.879,0,0,0,396,212a23.288,23.288,0,0,0-20.944,12.944l-1.585,3.169A28.038,28.038,0,0,0,348,256v8A4,4,0,0,0,352,268Zm72-64a19.994,19.994,0,0,1,11.535,36.329,37.24,37.24,0,0,0-16.7-11.6l-1.894-3.787a23.32,23.32,0,0,0-10.506-10.5A19.91,19.91,0,0,1,424,204Z"/><path d="M459,224a4,4,0,0,0,4,4h12a4,4,0,0,0,0-8H463A4,4,0,0,0,459,224Z"/><path d="M424,188a4,4,0,0,0,4-4V172a4,4,0,0,0-8,0v12A4,4,0,0,0,424,188Z"/><path d="M393.171,198.829a4,4,0,0,0,5.658-5.658l-8-8a4,4,0,0,0-5.658,5.658Z"/><path d="M454.86,249.2a4,4,0,1,0-5.657,5.657l7.812,7.812a4,4,0,0,0,5.657-5.657Z"/><path d="M452,200a3.994,3.994,0,0,0,2.829-1.171l8-8a4,4,0,0,0-5.658-5.658l-8,8A4,4,0,0,0,452,200Z"/><circle cx="256" cy="262.36" r="4"/><path d="M256,242.36a19.865,19.865,0,0,0-14.142,5.858,4,4,0,0,0,5.657,5.657,12,12,0,0,1,16.97,0,4,4,0,0,0,5.657-5.657A19.865,19.865,0,0,0,256,242.36Z"/><path d="M256,226.36A35.765,35.765,0,0,0,230.544,236.9a4,4,0,1,0,5.657,5.657,28,28,0,0,1,39.6,0,4,4,0,1,0,5.657-5.657A35.765,35.765,0,0,0,256,226.36Z"/><path d="M256,210.36a51.659,51.659,0,0,0-36.77,15.231,4,4,0,1,0,5.658,5.656,44,44,0,0,1,62.224,0,4,4,0,1,0,5.658-5.656A51.659,51.659,0,0,0,256,210.36Z"/><circle cx="124" cy="372" r="4"/></g><text x="0" y="527" fill="#000000" font-size="5px" font-weight="bold" font-family="'Helvetica Neue', Helvetica, Arial-Unicode, Arial, Sans-serif">Created by Chattapat</text><text x="0" y="532" fill="#000000" font-size="5px" font-weight="bold" font-family="'Helvetica Neue', Helvetica, Arial-Unicode, Arial, Sans-serif">from the Noun Project</text></svg>