<svg xmlns="http://www.w3.org/2000/svg" viewBox="0 0 128 160" x="0px" y="0px"><g data-name="1"><path d="M111.17,86.08l-2.5-.53a5.44,5.44,0,0,0,0-.57V35.05c0-3.45-3.24-5.59-6.24-5.59H25.19a5.53,5.53,0,0,0-5.89,5.59V85q0,.3,0,.6l-2.46.5c-4.74.93-5.44,3.74-5.44,5.33v.69c0,3.26,4.19,6.45,7.32,6.45h90.5c3.13,0,7.32-3.19,7.32-6.45v-.69C116.57,88.65,114.75,86.86,111.17,86.08Zm-88.08-51a1.75,1.75,0,0,1,1.8-1.81h77.57c1.16,0,2.45.77,2.45,1.8V85H23.09v-50ZM112.78,92.1c0,.87-2.18,2.67-3.53,2.67H18.75c-1.35,0-3.53-1.8-3.53-2.67v-.69c0-.34,0-1.15,2.38-1.61,1.89-.37,4.31-.89,4.72-1h33.3v0a1.9,1.9,0,0,0,1.89,1.9h13a1.9,1.9,0,0,0,1.89-1.9v0h33.49l4.5,1c2.41.52,2.41,1.18,2.41,1.62ZM65.91,69.64H72L75.58,72A6.74,6.74,0,0,0,86.43,79.7a6.75,6.75,0,0,0,0-9.54,7,7,0,0,0-8.26-1l-4.55-3a1.85,1.85,0,0,0-1-.32H65.91a1.9,1.9,0,1,0,0,3.79Zm13.66,3.2A3,3,0,0,1,83.75,77a3,3,0,0,1-4.18,0,2.95,2.95,0,0,1,0-4.18ZM65.91,61.06H85.54a5.71,5.71,0,1,0,0-3.79H65.91a1.9,1.9,0,1,0,0,3.79Zm25-3.81A1.92,1.92,0,1,1,89,59.16,1.92,1.92,0,0,1,90.91,57.25Zm-25-4.78h6.67a1.85,1.85,0,0,0,1-.32l4.53-3a6.74,6.74,0,0,0,8.28-10.52,6.9,6.9,0,0,0-9.54,0,6.75,6.75,0,0,0-1.31,7.68L72,48.68H65.91a1.9,1.9,0,1,0,0,3.79ZM79.57,41.31a3,3,0,0,1,4.18,4.18,3,3,0,0,1-4.15,0l-.06-.07a2.93,2.93,0,0,1,0-4.14ZM41.79,76.14l4.11,2.13V81.6a1.9,1.9,0,0,0,3.79,0V78.27l4.12-2.14a11.09,11.09,0,0,0,6-9.89V41.48a1.9,1.9,0,1,0-3.79,0V45l-6.34,3.29v-8.8a1.9,1.9,0,0,0-3.79,0v8.8L39.57,45V41.48a1.9,1.9,0,1,0-3.79,0V66.24A11.12,11.12,0,0,0,41.79,76.14Zm7.9-23.56L56,49.29v4.29l-6.34,3.29Zm0,8.56L56,57.85v4.3l-6.34,3.29Zm0,8.57L56,66.42a7.3,7.3,0,0,1-4,6.35L49.69,74ZM45.9,74l-2.36-1.23a7.3,7.3,0,0,1-4-6.35l6.32,3.29ZM39.57,49.29l6.33,3.29v4.29l-6.33-3.29Zm0,8.56,6.33,3.29v4.3l-6.33-3.29Z"/></g><text x="0" y="143" fill="#000000" font-size="5px" font-weight="bold" font-family="'Helvetica Neue', Helvetica, Arial-Unicode, Arial, Sans-serif">Created by Bahri Hariansah</text><text x="0" y="148" fill="#000000" font-size="5px" font-weight="bold" font-family="'Helvetica Neue', Helvetica, Arial-Unicode, Arial, Sans-serif">from the Noun Project</text></svg>